<svg width="24" height="24" viewBox="0 0 24 24" fill="none" xmlns="http://www.w3.org/2000/svg">
<path d="M20.1756 12.0446C20.1718 12.0652 20.1662 12.0859 20.1606 12.1046C20.1099 12.3277 19.9093 12.4852 19.6806 12.4796L5.50557 12.4796L9.91557 16.8896C10.0112 16.9796 10.0637 17.1034 10.0656 17.2346C10.0637 17.4296 9.94557 17.604 9.76369 17.6771C9.58369 17.7484 9.37557 17.7052 9.24057 17.5646L4.00557 12.3446C3.82099 12.1517 3.82099 11.8476 4.00557 11.6546L9.24057 6.43462C9.35682 6.29212 9.54244 6.22649 9.72244 6.26774C9.90057 6.30899 10.0412 6.44962 10.0824 6.62775C10.1237 6.80775 10.0581 6.99337 9.91557 7.10962L5.50557 11.5196L19.6806 11.5196C19.8193 11.514 19.9524 11.5702 20.0462 11.6696C20.1418 11.7709 20.1887 11.9077 20.1756 12.0446Z" fill="#312F2F"/>
</svg>
