<svg width="18" height="12" viewBox="0 0 18 12" fill="none" xmlns="http://www.w3.org/2000/svg">
    <path
        d="M0.824434 6.04511C0.828184 6.06573 0.833809 6.08636 0.839434 6.10511C0.890059 6.32823 1.09068 6.48573 1.31943 6.48011L15.4944 6.48011L11.0844 10.8901C10.9888 10.9801 10.9363 11.1039 10.9344 11.2351C10.9363 11.4301 11.0544 11.6045 11.2363 11.6776C11.4163 11.7489 11.6244 11.7057 11.7594 11.5651L16.9944 6.34511C17.179 6.15214 17.179 5.84808 16.9944 5.65511L11.7594 0.435108C11.6432 0.292608 11.4576 0.226983 11.2776 0.268233C11.0994 0.309483 10.9588 0.450108 10.9176 0.628233C10.8763 0.808234 10.9419 0.993858 11.0844 1.11011L15.4944 5.52011L1.31943 5.52011C1.18068 5.51448 1.04756 5.57073 0.953809 5.67011C0.858184 5.77136 0.811309 5.90823 0.824434 6.04511Z"
        fill="currentColor" />
</svg>