<svg width="24" height="24" viewBox="0 0 24 24" fill="none" xmlns="http://www.w3.org/2000/svg">
    <path
        d="M8.5 12C8.22386 12 8 12.2239 8 12.5C8 12.7761 8.22386 13 8.5 13V12ZM15.5 13C15.7761 13 16 12.7761 16 12.5C16 12.2239 15.7761 12 15.5 12V13ZM8.5 15C8.22386 15 8 15.2239 8 15.5C8 15.7761 8.22386 16 8.5 16V15ZM12.5 16C12.7761 16 13 15.7761 13 15.5C13 15.2239 12.7761 15 12.5 15V16ZM19 10.5C19 10.2239 18.7761 10 18.5 10C18.2239 10 18 10.2239 18 10.5H19ZM6.31901 20.3365L6.09202 20.782L6.31901 20.3365ZM5.66349 19.681L5.21799 19.908L5.66349 19.681ZM17.681 20.3365L17.908 20.782L17.681 20.3365ZM18.3365 19.681L18.782 19.908L18.3365 19.681ZM11.5 4C11.7761 4 12 3.77614 12 3.5C12 3.22386 11.7761 3 11.5 3V4ZM6.31901 3.66349L6.09202 3.21799L6.31901 3.66349ZM5.66349 4.31901L5.21799 4.09202L5.66349 4.31901ZM8.5 13L15.5 13V12L8.5 12V13ZM8.5 16H12.5V15H8.5V16ZM7.9 4H11.5V3H7.9V4ZM16.1 20H7.9V21H16.1V20ZM6 18.1V5.9H5V18.1H6ZM18 10.5V18.1H19V10.5H18ZM7.9 20C7.47171 20 7.18056 19.9996 6.95552 19.9812C6.73631 19.9633 6.62421 19.9309 6.54601 19.891L6.09202 20.782C6.33469 20.9057 6.59304 20.9549 6.87409 20.9779C7.1493 21.0004 7.48821 21 7.9 21V20ZM5 18.1C5 18.5118 4.99961 18.8507 5.0221 19.1259C5.04506 19.407 5.09434 19.6653 5.21799 19.908L6.10899 19.454C6.06915 19.3758 6.03669 19.2637 6.01878 19.0445C6.00039 18.8194 6 18.5283 6 18.1H5ZM6.54601 19.891C6.35785 19.7951 6.20487 19.6422 6.10899 19.454L5.21799 19.908C5.40973 20.2843 5.7157 20.5903 6.09202 20.782L6.54601 19.891ZM16.1 21C16.5118 21 16.8507 21.0004 17.1259 20.9779C17.407 20.9549 17.6653 20.9057 17.908 20.782L17.454 19.891C17.3758 19.9309 17.2637 19.9633 17.0445 19.9812C16.8194 19.9996 16.5283 20 16.1 20V21ZM18 18.1C18 18.5283 17.9996 18.8194 17.9812 19.0445C17.9633 19.2637 17.9309 19.3758 17.891 19.454L18.782 19.908C18.9057 19.6653 18.9549 19.407 18.9779 19.1259C19.0004 18.8507 19 18.5118 19 18.1H18ZM17.908 20.782C18.2843 20.5903 18.5903 20.2843 18.782 19.908L17.891 19.454C17.7951 19.6422 17.6422 19.7951 17.454 19.891L17.908 20.782ZM7.9 3C7.48821 3 7.1493 2.99961 6.87409 3.0221C6.59304 3.04506 6.33469 3.09434 6.09202 3.21799L6.54601 4.10899C6.62421 4.06915 6.73631 4.03669 6.95552 4.01878C7.18056 4.00039 7.47171 4 7.9 4V3ZM6 5.9C6 5.47171 6.00039 5.18056 6.01878 4.95552C6.03669 4.73631 6.06915 4.62421 6.10899 4.54601L5.21799 4.09202C5.09434 4.33469 5.04506 4.59304 5.0221 4.87409C4.99961 5.1493 5 5.48821 5 5.9H6ZM6.09202 3.21799C5.71569 3.40973 5.40973 3.71569 5.21799 4.09202L6.10899 4.54601C6.20487 4.35785 6.35785 4.20487 6.54601 4.10899L6.09202 3.21799Z"
        fill="currentColor" />
    <circle cx="17" cy="5" r="4" fill="currentColor" />
    <path
        d="M16.0163 6.5V6.11932L17.0263 5.12926C17.1229 5.03172 17.2034 4.94508 17.2678 4.86932C17.3321 4.79356 17.3804 4.72017 17.4126 4.64915C17.4448 4.57812 17.4609 4.50237 17.4609 4.42188C17.4609 4.33002 17.4401 4.25142 17.3984 4.18608C17.3568 4.11979 17.2995 4.06866 17.2266 4.03267C17.1536 3.99669 17.0708 3.97869 16.978 3.97869C16.8823 3.97869 16.7985 3.99858 16.7266 4.03835C16.6546 4.07718 16.5987 4.13258 16.5589 4.20455C16.5201 4.27652 16.5007 4.36222 16.5007 4.46165H15.9993C15.9993 4.27699 16.0414 4.11648 16.1257 3.98011C16.21 3.84375 16.326 3.73816 16.4737 3.66335C16.6224 3.58854 16.7929 3.55114 16.9851 3.55114C17.1802 3.55114 17.3516 3.58759 17.4993 3.66051C17.647 3.73343 17.7616 3.83333 17.843 3.96023C17.9254 4.08712 17.9666 4.23201 17.9666 4.39489C17.9666 4.50379 17.9458 4.6108 17.9041 4.71591C17.8625 4.82102 17.7891 4.9375 17.6839 5.06534C17.5798 5.19318 17.4335 5.34801 17.245 5.52983L16.7436 6.03977V6.05966H18.0107V6.5H16.0163Z"
        fill="white" />
</svg>