<svg width="24" height="24" viewBox="0 0 24 24" fill="none" xmlns="http://www.w3.org/2000/svg">
    <path d="M16 3H8.2C5.32812 3 3 4.79086 3 7V15" stroke="currentColor" />
    <path
        d="M20.5 10.8667V15.1333C20.5 16.3991 20.4988 17.2951 20.3994 17.9844C20.303 18.6536 20.1213 19.068 19.7977 19.3979C19.6116 19.5876 19.3917 19.7602 19.1422 19.91C18.686 20.1838 18.0984 20.3394 17.1921 20.4193C16.2819 20.4995 15.1084 20.5 13.5 20.5C11.8916 20.5 10.7181 20.4995 9.80788 20.4193C8.90156 20.3394 8.31403 20.1838 7.85784 19.91C7.60828 19.7602 7.38836 19.5876 7.20231 19.3979C6.87873 19.068 6.697 18.6536 6.60056 17.9844C6.50121 17.2951 6.5 16.3991 6.5 15.1333V10.8667C6.5 9.60092 6.50121 8.70495 6.60056 8.01558C6.697 7.3464 6.87873 6.93196 7.20231 6.6021C7.38836 6.41244 7.60828 6.23976 7.85784 6.08997C8.31403 5.81616 8.90156 5.66065 9.80788 5.58073C10.7181 5.50046 11.8916 5.5 13.5 5.5C15.1084 5.5 16.2819 5.50046 17.1921 5.58073C18.0984 5.66065 18.686 5.81616 19.1422 6.08997C19.3917 6.23976 19.6116 6.41244 19.7977 6.6021C20.1213 6.93196 20.303 7.3464 20.3994 8.01558C20.4988 8.70495 20.5 9.60092 20.5 10.8667Z"
        stroke="currentColor" />
    <circle cx="13.5" cy="10.5" r="2" stroke="currentColor" stroke-linecap="round" />
    <path
        d="M17.3637 16.7235C17.1358 16.0856 16.6336 15.522 15.935 15.1199C15.2365 14.7179 14.3805 14.5 13.5 14.5C12.6195 14.5 11.7635 14.7179 11.065 15.1199C10.3664 15.522 9.8642 16.0856 9.6363 16.7235"
        stroke="currentColor" stroke-linecap="round" />
</svg>