<svg width="24" height="24" viewBox="0 0 24 24" fill="none" xmlns="http://www.w3.org/2000/svg">
    <path d="M8 13L12.2277 16.3821C12.6556 16.7245 13.2793 16.6586 13.6263 16.2345L22 6" stroke="currentColor"
        stroke-linecap="round" />
    <path fill-rule="evenodd" clip-rule="evenodd"
        d="M10.8051 11.9167L15.387 6.31663C15.5619 6.10291 15.5304 5.7879 15.3166 5.61304C15.1029 5.43817 14.7879 5.46967 14.6131 5.6834L10.0369 11.2765L10.8051 11.9167ZM7.63882 15.7866L6.87057 15.1464L6.2201 15.9415C6.05043 16.1488 5.74746 16.1856 5.53312 16.0248L2.30003 13.6C2.07912 13.4343 1.76571 13.4791 1.60003 13.7C1.43434 13.9209 1.47912 14.2343 1.70003 14.4L4.93312 16.8248C5.57616 17.3071 6.48506 17.1968 6.99406 16.5747L7.63882 15.7866Z"
        fill="currentColor" />
</svg>