<svg width="24" height="24" viewBox="0 0 24 24" fill="none" xmlns="http://www.w3.org/2000/svg">
<path d="M19.5 12C19.5 12.8291 18.8291 13.5 18 13.5C17.1709 13.5 16.5 12.8291 16.5 12C16.5 11.1709 17.1709 10.5 18 10.5C18.8291 10.5 19.5 11.1709 19.5 12ZM13.5 12C13.5 12.8291 12.8291 13.5 12 13.5C11.1709 13.5 10.5 12.8291 10.5 12C10.5 11.1709 11.1709 10.5 12 10.5C12.8291 10.5 13.5 11.1709 13.5 12ZM7.5 12C7.5 12.8291 6.8291 13.5 6 13.5C5.1709 13.5 4.5 12.8291 4.5 12C4.5 11.1709 5.1709 10.5 6 10.5C6.8291 10.5 7.5 11.1709 7.5 12Z" fill="#312F2F"/>
</svg>
