<svg width="24" height="24" viewBox="0 0 24 24" fill="none" xmlns="http://www.w3.org/2000/svg">
<g clip-path="url(#clip0_1205_17392)">
<path d="M12.0009 0.959961C5.9094 0.959961 0.960938 5.90842 0.960938 12C0.960938 18.0915 5.9094 23.04 12.0009 23.04C18.0925 23.04 23.0409 18.0915 23.0409 12C23.0409 5.90842 18.0925 0.959961 12.0009 0.959961ZM12.0009 1.91996C17.5737 1.91996 22.0809 6.42725 22.0809 12C22.0809 17.5727 17.5737 22.08 12.0009 22.08C6.42822 22.08 1.92094 17.5727 1.92094 12C1.92094 6.42725 6.42822 1.91996 12.0009 1.91996ZM12.0009 5.27996C11.619 5.27996 11.2528 5.43167 10.9827 5.70173C10.7127 5.97178 10.5609 6.33805 10.5609 6.71996C10.5609 7.10187 10.7127 7.46814 10.9827 7.73819C11.2528 8.00825 11.619 8.15996 12.0009 8.15996C12.3828 8.15996 12.7491 8.00825 13.0192 7.73819C13.2892 7.46814 13.4409 7.10187 13.4409 6.71996C13.4409 6.33805 13.2892 5.97178 13.0192 5.70173C12.7491 5.43167 12.3828 5.27996 12.0009 5.27996ZM10.0809 10.08V11.04H10.5609H11.0409V17.28H10.5609H10.0809V18.24H10.5609H11.0409H12.9609H13.4409H13.9209V17.28H13.4409H12.9609V10.08H12.4809H10.5609H10.0809Z" fill="#312F2F"/>
</g>
<defs>
<clipPath id="clip0_1205_17392">
<rect width="24" height="24" fill="white"/>
</clipPath>
</defs>
</svg>
