<svg width="32" height="32" viewBox="0 0 32 32" fill="none" xmlns="http://www.w3.org/2000/svg">
<path d="M10.6638 3.2002C6.54754 3.2002 3.19922 6.55161 3.19922 10.6689V21.3356C3.19922 25.4519 6.55064 28.8002 10.668 28.8002H21.3346C25.4509 28.8002 28.7992 25.4488 28.7992 21.3314V10.6648C28.7992 6.54851 25.4478 3.2002 21.3305 3.2002H10.6638ZM23.4659 7.46686C24.0547 7.46686 24.5326 7.94473 24.5326 8.53353C24.5326 9.12233 24.0547 9.6002 23.4659 9.6002C22.8771 9.6002 22.3992 9.12233 22.3992 8.53353C22.3992 7.94473 22.8771 7.46686 23.4659 7.46686ZM15.9992 9.6002C19.5288 9.6002 22.3992 12.4706 22.3992 16.0002C22.3992 19.5298 19.5288 22.4002 15.9992 22.4002C12.4696 22.4002 9.59922 19.5298 9.59922 16.0002C9.59922 12.4706 12.4696 9.6002 15.9992 9.6002ZM15.9992 11.7335C14.8676 11.7335 13.7824 12.1831 12.9822 12.9832C12.1821 13.7834 11.7326 14.8686 11.7326 16.0002C11.7326 17.1318 12.1821 18.217 12.9822 19.0172C13.7824 19.8173 14.8676 20.2669 15.9992 20.2669C17.1308 20.2669 18.2161 19.8173 19.0162 19.0172C19.8164 18.217 20.2659 17.1318 20.2659 16.0002C20.2659 14.8686 19.8164 13.7834 19.0162 12.9832C18.2161 12.1831 17.1308 11.7335 15.9992 11.7335Z" fill="#312F2F"/>
</svg>
