<svg width="30" height="46" viewBox="0 0 30 46" fill="none" xmlns="http://www.w3.org/2000/svg">
    <path
        d="M14.9996 0.879883C7.05711 0.879883 0.599609 7.33738 0.599609 15.2799C0.599609 20.1361 2.45211 23.0236 4.19961 25.0299C5.07336 26.0349 5.91711 26.8449 6.47961 27.5799C7.04211 28.3149 7.31961 28.9074 7.31961 29.6799V39.2799C7.31961 40.8586 8.62086 42.1599 10.1996 42.1599H11.3096C11.7371 43.8099 13.2221 45.0399 14.9996 45.0399C16.7771 45.0399 18.2621 43.8099 18.6896 42.1599H19.7996C21.3784 42.1599 22.6796 40.8586 22.6796 39.2799V29.6799C22.6796 28.5961 22.9984 27.8461 23.5496 27.0699C24.1009 26.2936 24.9296 25.5211 25.7996 24.5799C27.5359 22.6936 29.3996 20.0461 29.3996 15.2799C29.3996 7.33738 22.9421 0.879883 14.9996 0.879883ZM14.9996 2.79988C21.9034 2.79988 27.4796 8.37613 27.4796 15.2799C27.4796 19.5699 25.9834 21.5311 24.3596 23.2899C23.5496 24.1711 22.6984 24.9661 21.9896 25.9599C21.2809 26.9536 20.7596 28.1799 20.7596 29.6799V34.4799H9.23961V29.6799C9.23961 28.3861 8.67711 27.3174 7.97961 26.4099C7.28211 25.5024 6.44586 24.6924 5.63961 23.7699C4.02711 21.9211 2.51961 19.6711 2.51961 15.2799C2.51961 8.37613 8.09586 2.79988 14.9996 2.79988ZM11.0696 15.2499C11.0284 15.2574 10.9871 15.2686 10.9496 15.2799C10.5896 15.3436 10.3009 15.6061 10.1996 15.9549C10.0984 16.3074 10.2034 16.6824 10.4696 16.9299L14.0396 20.4999V32.5599H15.9596V20.4999L19.5296 16.9299C19.9121 16.5474 19.9121 15.9324 19.5296 15.5499C19.1471 15.1674 18.5321 15.1674 18.1496 15.5499L14.9996 18.6999L11.8496 15.5499C11.6509 15.3361 11.3621 15.2274 11.0696 15.2499ZM9.23961 36.3999H20.7596V39.2799C20.7596 39.8124 20.3321 40.2399 19.7996 40.2399H12.2996C12.1721 40.2136 12.0371 40.2136 11.9096 40.2399H10.1996C9.66711 40.2399 9.23961 39.8124 9.23961 39.2799V36.3999ZM13.3496 42.1599H16.6496C16.3196 42.7336 15.7159 43.1199 14.9996 43.1199C14.2834 43.1199 13.6796 42.7336 13.3496 42.1599Z"
        fill="currentColor" />
</svg>