<svg width="32" height="32" viewBox="0 0 32 32" fill="none" xmlns="http://www.w3.org/2000/svg">
<path d="M25.6009 4.2666H6.40091C5.22224 4.2666 4.26758 5.22127 4.26758 6.39994V25.5999C4.26758 26.7786 5.22224 27.7333 6.40091 27.7333H25.6009C26.7796 27.7333 27.7342 26.7786 27.7342 25.5999V6.39994C27.7342 5.22127 26.7796 4.2666 25.6009 4.2666ZM11.6852 23.4666H8.53851V13.3418H11.6852V23.4666ZM10.0798 11.8943C9.06545 11.8943 8.24518 11.0719 8.24518 10.0597C8.24518 9.0474 9.06651 8.22607 10.0798 8.22607C11.091 8.22607 11.9134 9.04847 11.9134 10.0597C11.9134 11.0719 11.091 11.8943 10.0798 11.8943ZM23.4718 23.4666H20.3273V18.5429C20.3273 17.3685 20.306 15.8581 18.6921 15.8581C17.0548 15.8581 16.803 17.137 16.803 18.4575V23.4666H13.6585V13.3418H16.6772V14.7253H16.7198C17.1401 13.9295 18.1662 13.0901 19.6969 13.0901C22.883 13.0901 23.4718 15.1871 23.4718 17.9135V23.4666Z" fill="#312F2F"/>
</svg>
