<svg width="20" height="22" viewBox="0 0 20 22" fill="none" xmlns="http://www.w3.org/2000/svg">
    <path
        d="M9.61 0.5C8.6875 0.5 7.93 1.2575 7.93 2.18C7.93 3.1025 8.6875 3.86 9.61 3.86C10.5325 3.86 11.29 3.1025 11.29 2.18C11.29 1.2575 10.5325 0.5 9.61 0.5ZM9.61 1.46C10.0131 1.46 10.33 1.77687 10.33 2.18C10.33 2.58313 10.0131 2.9 9.61 2.9C9.20687 2.9 8.89 2.58313 8.89 2.18C8.89 1.77687 9.20687 1.46 9.61 1.46ZM15.37 2.66C14.3144 2.66 13.45 3.52437 13.45 4.58C13.45 5.63562 14.3144 6.5 15.37 6.5C16.4256 6.5 17.29 5.63562 17.29 4.58C17.29 3.52437 16.4256 2.66 15.37 2.66ZM3.85 3.14C3.06063 3.14 2.41 3.79063 2.41 4.58C2.41 5.36937 3.06063 6.02 3.85 6.02C4.63938 6.02 5.29 5.36937 5.29 4.58C5.29 3.79063 4.63938 3.14 3.85 3.14ZM15.37 3.62C15.9063 3.62 16.33 4.04375 16.33 4.58C16.33 5.11625 15.9063 5.54 15.37 5.54C14.8338 5.54 14.41 5.11625 14.41 4.58C14.41 4.04375 14.8338 3.62 15.37 3.62ZM3.85 4.1C4.12 4.1 4.33 4.31 4.33 4.58C4.33 4.85 4.12 5.06 3.85 5.06C3.58 5.06 3.37 4.85 3.37 4.58C3.37 4.31 3.58 4.1 3.85 4.1ZM17.77 8.18C16.5831 8.18 15.61 9.15312 15.61 10.34C15.61 11.5269 16.5831 12.5 17.77 12.5C18.9569 12.5 19.93 11.5269 19.93 10.34C19.93 9.15312 18.9569 8.18 17.77 8.18ZM1.45 9.14C0.79375 9.14 0.25 9.68375 0.25 10.34C0.25 10.9963 0.79375 11.54 1.45 11.54C2.10625 11.54 2.65 10.9963 2.65 10.34C2.65 9.68375 2.10625 9.14 1.45 9.14ZM17.77 9.14C18.4375 9.14 18.97 9.6725 18.97 10.34C18.97 11.0075 18.4375 11.54 17.77 11.54C17.1025 11.54 16.57 11.0075 16.57 10.34C16.57 9.6725 17.1025 9.14 17.77 9.14ZM1.45 10.1C1.58875 10.1 1.69 10.2013 1.69 10.34C1.69 10.4788 1.58875 10.58 1.45 10.58C1.31125 10.58 1.21 10.4788 1.21 10.34C1.21 10.2013 1.31125 10.1 1.45 10.1ZM15.37 13.7C14.05 13.7 12.97 14.78 12.97 16.1C12.97 17.42 14.05 18.5 15.37 18.5C16.69 18.5 17.77 17.42 17.77 16.1C17.77 14.78 16.69 13.7 15.37 13.7ZM15.37 14.66C16.1706 14.66 16.81 15.2994 16.81 16.1C16.81 16.9006 16.1706 17.54 15.37 17.54C14.5694 17.54 13.93 16.9006 13.93 16.1C13.93 15.2994 14.5694 14.66 15.37 14.66ZM3.85 15.14C3.325 15.14 2.89 15.575 2.89 16.1C2.89 16.625 3.325 17.06 3.85 17.06C4.375 17.06 4.81 16.625 4.81 16.1C4.81 15.575 4.375 15.14 3.85 15.14ZM9.61 15.86C8.15688 15.86 6.97 17.0469 6.97 18.5C6.97 19.9531 8.15688 21.14 9.61 21.14C11.0631 21.14 12.25 19.9531 12.25 18.5C12.25 17.0469 11.0631 15.86 9.61 15.86ZM9.61 16.82C10.5438 16.82 11.29 17.5662 11.29 18.5C11.29 19.4338 10.5438 20.18 9.61 20.18C8.67625 20.18 7.93 19.4338 7.93 18.5C7.93 17.5662 8.67625 16.82 9.61 16.82Z"
        fill="currentColor" />
</svg>