<svg width="150" height="32" viewBox="0 0 150 32" fill="none" xmlns="http://www.w3.org/2000/svg">
<path d="M15.7745 21.6385L26.1793 5.75922H5.23633L9.39176 0H28.1867C30.7744 0 32.8827 2.10475 32.8827 4.69604C32.8827 5.63669 32.6052 6.5449 32.079 7.32697L22.3986 21.6421H15.7817L15.7745 21.6385Z" fill="#82AA47"/>
<path d="M4.69603 31.9995C2.10835 31.9995 0 29.8948 0 27.3035C0 26.3628 0.277513 25.451 0.803699 24.6726L10.4841 10.3574H17.1659L6.69625 26.2367H23.4874L27.6428 31.9959H4.69242L4.69603 31.9995Z" fill="#82AA47"/>
<path d="M57.0008 24.81V28.742H38.2852V24.81L51.829 7.18636H38.9014V3.25439H56.9612V7.18636L43.4173 24.81H56.9972H57.0008Z" fill="black"/>
<path d="M78.9609 8.71393V28.7414H74.8452V25.3933C73.3891 27.6891 70.9852 29.1811 67.8534 29.1811C62.5014 29.1811 58.6055 24.8491 58.6055 18.7295C58.6055 12.6099 62.5735 8.27783 67.8173 8.27783C70.9853 8.27783 73.3891 9.84198 74.8452 12.1377V8.71393H78.9609V8.71393ZM74.8812 18.7259C74.8812 14.902 72.2214 12.2098 68.7291 12.2098C65.2368 12.2098 62.7573 14.9056 62.7573 18.7259C62.7573 22.5461 65.2693 25.2419 68.7291 25.2419C72.189 25.2419 74.8812 22.5822 74.8812 18.7259Z" fill="black"/>
<path d="M102.916 18.7312C102.916 24.8472 99.0201 29.1828 93.6681 29.1828C90.5362 29.1828 88.1323 27.6547 86.6763 25.395V28.7431H82.5605V0.70752H86.6763V12.1395C88.1323 9.8473 90.5362 8.27955 93.7042 8.27955C98.948 8.27955 102.916 12.6116 102.916 18.7312ZM98.7642 18.7312C98.7642 14.9073 96.2882 12.2151 92.7923 12.2151C89.2965 12.2151 86.6403 14.9109 86.6403 18.7312C86.6403 22.5514 89.3001 25.2472 92.7923 25.2472C96.2846 25.2472 98.7642 22.5875 98.7642 18.7312Z" fill="black"/>
<path d="M126.219 18.7312C126.219 24.8472 122.323 29.1828 116.971 29.1828C113.839 29.1828 111.435 27.6547 109.979 25.395V28.7431H105.863V0.70752H109.979V12.1395C111.435 9.8473 113.839 8.27955 117.007 8.27955C122.251 8.27955 126.219 12.6116 126.219 18.7312ZM122.067 18.7312C122.067 14.9073 119.591 12.2151 116.095 12.2151C112.599 12.2151 109.943 14.9109 109.943 18.7312C109.943 22.5514 112.603 25.2472 116.095 25.2472C119.587 25.2472 122.067 22.5875 122.067 18.7312Z" fill="black"/>
<path d="M149.271 18.7295C149.271 24.7374 144.72 29.1811 138.895 29.1811C133.071 29.1811 128.52 24.7013 128.52 18.7295C128.52 12.7576 133.18 8.27783 138.895 8.27783C144.611 8.27783 149.271 12.6819 149.271 18.7295ZM132.668 18.7295C132.668 22.5894 135.4 25.2455 138.895 25.2455C142.391 25.2455 145.123 22.5858 145.123 18.7295C145.123 14.8732 142.355 12.2134 138.895 12.2134C135.436 12.2134 132.668 14.8732 132.668 18.7295Z" fill="black"/>
</svg>
