<svg width="16" height="16" viewBox="0 0 16 16" fill="none" xmlns="http://www.w3.org/2000/svg">
<path d="M8.00031 0.319824C7.73522 0.319824 7.52031 0.534728 7.52031 0.799824V7.51982H0.800313C0.535217 7.51982 0.320312 7.73473 0.320312 7.99983C0.320312 8.26492 0.535216 8.47983 0.800313 8.47983H7.52031V15.1998C7.52031 15.4649 7.73522 15.6798 8.00031 15.6798C8.26541 15.6798 8.48031 15.4649 8.48031 15.1998V8.47983H15.2003C15.4654 8.47983 15.6803 8.26492 15.6803 7.99983C15.6803 7.73473 15.4654 7.51982 15.2003 7.51982H8.48031V0.799825C8.48031 0.534728 8.26541 0.319824 8.00031 0.319824Z" fill="currentColor"/>
</svg>
