<svg width="24" height="24" viewBox="0 0 24 24" fill="none" xmlns="http://www.w3.org/2000/svg">
<path d="M10.4023 2.39941C5.99354 2.39941 2.40234 5.99061 2.40234 10.3994C2.40234 14.8082 5.99354 18.3994 10.4023 18.3994C12.3196 18.3994 14.0803 17.7186 15.4602 16.5885L20.2367 21.365C20.3104 21.4418 20.3987 21.5031 20.4964 21.5453C20.5941 21.5876 20.6993 21.6099 20.8057 21.611C20.9121 21.6121 21.0177 21.5919 21.1163 21.5517C21.2148 21.5114 21.3043 21.4519 21.3796 21.3767C21.4549 21.3014 21.5144 21.2119 21.5546 21.1133C21.5948 21.0148 21.615 20.9092 21.6139 20.8028C21.6128 20.6964 21.5905 20.5912 21.5483 20.4935C21.506 20.3958 21.4447 20.3075 21.368 20.2338L16.5914 15.4572C17.7215 14.0773 18.4023 12.3166 18.4023 10.3994C18.4023 5.99061 14.8111 2.39941 10.4023 2.39941ZM10.4023 3.99941C13.9464 3.99941 16.8023 6.85532 16.8023 10.3994C16.8023 13.9435 13.9464 16.7994 10.4023 16.7994C6.85825 16.7994 4.00234 13.9435 4.00234 10.3994C4.00234 6.85532 6.85825 3.99941 10.4023 3.99941Z" fill="#606060"/>
</svg>
