<svg width="32" height="32" viewBox="0 0 32 32" fill="none" xmlns="http://www.w3.org/2000/svg">
<path d="M26.8305 4.25006C26.4837 4.26536 26.1607 4.36636 25.8763 4.48131C25.6099 4.58848 24.592 5.02504 22.9888 5.71256C21.3842 6.40069 19.2595 7.3129 16.993 8.28756C12.46 10.2369 7.36371 12.4312 4.75339 13.5542C4.65523 13.5964 4.31273 13.7059 3.94922 13.9896C3.5857 14.2734 3.19922 14.8615 3.19922 15.5167C3.19922 16.0451 3.45102 16.57 3.76797 16.8834C4.08491 17.1968 4.42028 17.3516 4.70755 17.4688C5.74986 17.8941 8.98252 19.217 9.59297 19.4667C9.8078 20.1248 10.9779 23.7041 11.2492 24.5813C11.4281 25.1602 11.5984 25.5228 11.8201 25.8105C11.9309 25.9543 12.0597 26.0804 12.2159 26.1792C12.2783 26.2187 12.3467 26.2491 12.4159 26.2771L12.4201 26.2792C12.436 26.2856 12.4497 26.2965 12.4659 26.3021C12.4964 26.3128 12.5168 26.3141 12.5576 26.323C12.72 26.3755 12.8841 26.4084 13.0305 26.4084C13.6546 26.4084 14.0367 26.0646 14.0367 26.0646L14.0596 26.048L17.2701 23.2709L21.1638 26.9542C21.2186 27.0318 21.7299 27.7334 22.8576 27.7334C23.5271 27.7334 24.0582 27.3974 24.3992 27.0396C24.7402 26.6819 24.9527 26.306 25.043 25.8334V25.8313C25.1274 25.3847 28.7159 6.96256 28.7159 6.96256L28.7096 6.98756C28.8147 6.50808 28.8422 6.06155 28.7263 5.6209C28.6104 5.18025 28.305 4.75835 27.9263 4.53131C27.5477 4.30433 27.1772 4.23477 26.8305 4.25006ZM26.6305 6.47923C26.6253 6.51036 26.6343 6.49471 26.6263 6.53131L26.6242 6.54381L26.6221 6.55631C26.6221 6.55631 23.0781 24.7429 22.9471 25.4355C22.9567 25.3832 22.9129 25.4872 22.868 25.5501C22.8044 25.5063 22.6742 25.4501 22.6742 25.4501L22.6534 25.4271L17.3346 20.3959L13.5742 23.6459L14.693 19.1667C14.693 19.1667 21.6862 11.9276 22.1076 11.5063C22.4468 11.1692 22.518 11.0517 22.518 10.9355C22.518 10.7797 22.4368 10.6667 22.2555 10.6667C22.0923 10.6667 21.8728 10.8254 21.7555 10.9001C20.2268 11.8745 13.5158 15.7858 10.5076 17.5355C10.0295 17.3398 6.70819 15.9803 5.58255 15.5209C5.59107 15.5172 5.58827 15.5185 5.59714 15.5146C8.20814 14.3913 13.3023 12.197 17.8346 10.248C20.1008 9.27345 22.2271 8.36055 23.8305 7.67298C25.4091 6.996 26.506 6.53008 26.6305 6.47923Z" fill="#312F2F"/>
</svg>
