<svg width="32" height="32" viewBox="0 0 32 32" fill="none" xmlns="http://www.w3.org/2000/svg">
<path d="M29.8672 7.39918C28.8464 7.85251 27.7499 8.15758 26.5989 8.29518C27.7744 7.59118 28.6757 6.47651 29.1003 5.14745C28.0016 5.79918 26.7835 6.27278 25.4864 6.52878C24.4485 5.42265 22.9701 4.73145 21.3339 4.73145C18.1915 4.73145 15.6443 7.27971 15.6443 10.421C15.6443 10.8669 15.6955 11.3021 15.7915 11.717C11.0629 11.4802 6.87094 9.21464 4.06348 5.77145C3.57495 6.61198 3.29441 7.58905 3.29441 8.63331C3.29441 10.6066 4.29815 12.3485 5.82455 13.3682C4.89228 13.3384 4.01441 13.0824 3.24748 12.6568C3.24748 12.6813 3.24748 12.7037 3.24748 12.7282C3.24748 15.4856 5.20801 17.7853 7.81174 18.3069C7.33494 18.437 6.83148 18.5064 6.31201 18.5064C5.94614 18.5064 5.58881 18.4701 5.24215 18.405C5.96641 20.6653 8.06774 22.3112 10.5573 22.357C8.61068 23.8834 6.15735 24.7933 3.49068 24.7933C3.03201 24.7933 2.57868 24.7666 2.13281 24.7133C4.65121 26.3272 7.64108 27.269 10.8549 27.269C21.3211 27.269 27.0427 18.5992 27.0427 11.0802C27.0427 10.8338 27.0373 10.5885 27.0267 10.3442C28.1392 9.54105 29.1045 8.53944 29.8672 7.39918Z" fill="#312F2F"/>
</svg>
