<svg width="40" height="40" viewBox="0 0 40 40" fill="none" xmlns="http://www.w3.org/2000/svg">
<rect width="40" height="40" rx="8" fill="#F5F5F5"/>
<path d="M20 12.5C19.1709 12.5 18.5 13.1709 18.5 14C18.5 14.8291 19.1709 15.5 20 15.5C20.8291 15.5 21.5 14.8291 21.5 14C21.5 13.1709 20.8291 12.5 20 12.5ZM20 18.5C19.1709 18.5 18.5 19.1709 18.5 20C18.5 20.8291 19.1709 21.5 20 21.5C20.8291 21.5 21.5 20.8291 21.5 20C21.5 19.1709 20.8291 18.5 20 18.5ZM20 24.5C19.1709 24.5 18.5 25.1709 18.5 26C18.5 26.8291 19.1709 27.5 20 27.5C20.8291 27.5 21.5 26.8291 21.5 26C21.5 25.1709 20.8291 24.5 20 24.5Z" fill="#312F2F"/>
</svg>
